<?xml version="1.0" standalone="no"?>
<!DOCTYPE svg PUBLIC "-//W3C//DTD SVG 20010904//EN"
 "http://www.w3.org/TR/2001/REC-SVG-20010904/DTD/svg10.dtd">
<svg version="1.0" xmlns="http://www.w3.org/2000/svg"
 width="400.000000pt" height="400.000000pt" viewBox="0 0 400.000000 400.000000"
 preserveAspectRatio="xMidYMid meet">
<metadata>
Created by potrace 1.14, written by Peter Selinger 2001-2017
</metadata>
<g transform="translate(0.000000,400.000000) scale(0.100000,-0.100000)"
fill="#000000" stroke="none">
<path d="M1763 3664 c-53 -19 -138 -94 -163 -143 -79 -156 -16 -349 140 -424
36 -18 63 -22 135 -22 81 0 95 3 140 29 60 35 108 85 137 146 32 64 31 186 -1
252 -27 55 -83 113 -143 146 -56 32 -181 40 -245 16z"/>
<path d="M2584 3651 c-145 -70 -208 -223 -157 -382 24 -75 107 -159 182 -184
113 -37 243 -7 323 76 66 68 83 112 83 214 -1 104 -17 145 -86 215 -59 59
-117 83 -210 87 -66 2 -84 -2 -135 -26z"/>
<path d="M2208 2995 c-2 -2 -37 -6 -77 -9 -41 -4 -77 -9 -80 -11 -4 -2 -22 -6
-41 -9 -121 -19 -325 -107 -463 -200 -98 -66 -100 -68 -345 -304 -107 -103
-227 -218 -267 -257 -572 -550 -551 -529 -563 -565 -5 -14 -8 -48 -8 -76 2
-85 69 -155 152 -160 77 -4 104 13 265 170 85 82 269 260 409 396 140 136 302
294 360 350 170 165 311 248 510 301 69 19 112 23 230 24 169 0 199 -4 323
-45 285 -96 520 -327 615 -605 46 -134 52 -168 57 -320 8 -281 -87 -519 -288
-719 -144 -143 -305 -229 -512 -272 -11 -2 -45 -7 -75 -10 -30 -3 -66 -6 -80
-8 -14 -2 -61 1 -105 5 -247 23 -410 93 -602 256 -92 78 -144 89 -220 50 -84
-45 -120 -160 -71 -230 48 -68 216 -202 332 -265 99 -53 292 -122 386 -137 25
-4 54 -9 65 -12 54 -13 316 -11 400 3 280 45 509 162 721 366 182 176 293 368
359 624 31 118 39 189 40 334 0 147 -9 225 -40 341 -88 337 -278 600 -560 776
-137 86 -322 160 -470 189 -11 2 -29 6 -40 8 -67 13 -308 29 -317 21z"/>
</g>
</svg>
